<svg viewBox="108.53 193.825 48 39.856" width="32" height="26.57">
  <g transform="matrix(1.070908, 0, 0, 1.070908, 108.529854, 193.825058)" style="">
    <path id="path-2"
      d="m32.41121,2.21686a7.21,7.21 0 0 1 10.68,9.68a20.94,20.94 0 0 0 -10.68,-9.68zm-20,0a7.21,7.21 0 0 0 -10.68,9.68a20.94,20.94 0 0 1 10.72,-9.68l-0.04,0zm30.95,16.52c-0.44,-9.49 -9.65,-17.08 -21,-17.08a24,24 0 0 0 -9.55,1.95a20.87,20.87 0 0 1 17.28,1.46a22.49,22.49 0 0 1 6.66,5.37a9.42,9.42 0 1 0 6.63,9c-0.02,-0.23 -0.02,-0.47 -0.02,-0.7zm-28.67,15.07a22.44,22.44 0 0 1 -7.06,-5.87a9.28,9.28 0 0 0 3.18,0.56a9.42,9.42 0 1 0 -9.45,-9.43c0,0.11 0,0.21 0,0.31l0,0.06c0,9.82 9.4,17.78 21,17.78a24.08,24.08 0 0 0 9.56,-1.95a20.89,20.89 0 0 1 -17.23,-1.46z">
    </path>
  </g>
</svg>